<svg xmlns="http://www.w3.org/2000/svg" viewBox="0 0 256 256" width="256" height="256">
  <defs>
    <linearGradient id="bg" x1="0%" y1="0%" x2="100%" y2="100%">
      <stop offset="0%" stop-color="#0D2137"/>
      <stop offset="100%" stop-color="#1565A0"/>
    </linearGradient>
  </defs>
  <!-- Rounded square background -->
  <rect width="256" height="256" rx="45" ry="45" fill="url(#bg)"/>
  <!-- Wrench + Screwdriver icon (Heroicons wrench-screwdriver solid, scaled 7.5x, centered) -->
  <g transform="translate(38, 38) scale(7.5)" fill="white">
    <path fill-rule="evenodd" d="M12 6.75a5.25 5.25 0 0 1 6.775-5.025.75.75 0 0 1 .313 1.248l-3.32 3.319c.063.475.276.934.641 1.299.365.365.824.578 1.3.64l3.318-3.319a.75.75 0 0 1 1.248.313 5.25 5.25 0 0 1-5.472 6.756c-1.018-.086-1.87.1-2.309.634L7.344 21.3A3.298 3.298 0 1 1 2.7 16.657l8.684-7.151c.533-.44.72-1.291.634-2.306ZM5.25 5.25a3 3 0 0 0-2.872 3.864l1.897-1.898a.75.75 0 0 1 1.06 0l2.122 2.12a.75.75 0 0 1 0 1.061l-1.897 1.897A3 3 0 0 0 8.999 9.25a3 3 0 0 0-3.75-4Z" clip-rule="evenodd"/>
  </g>
</svg>
